# xmcd
#
# Track frame offsets:
#	150
#	14099
#	30416
#	39827
#	55284
#	69522
#	84697
#	104111
#	121345
#	134552
#	149768
#	167205
#
# Disc length: 2533 seconds
#
# Revision: 1
# Processed by: cddbd v1.5.2PL0 Copyright (c) Steve Scherf et al.
# Submitted via: audiograbber 1.83.01
#
DISCID=b309e30c
DTITLE=Glenn Kaiser - Long Way From Home
DYEAR=2017
DGENRE=Blues
TTITLE0=Leavin' Blues
TTITLE1=Love Bomb
TTITLE2=Live Your Life For A Change
TTITLE3=I Wish I Was In Heaven Sittin Down
TTITLE4=Since I Laid My Burdens Down
TTITLE5=Long Way From Home
TTITLE6=This Train
TTITLE7=In the Light Of the Morning Star
TTITLE8=All Shook Up
TTITLE9=News For The Blues
TTITLE10=What You Did
TTITLE11=I'll Fly Away
EXTD=
EXTT0=
EXTT1=
EXTT2=
EXTT3=
EXTT4=
EXTT5=
EXTT6=
EXTT7=
EXTT8=
EXTT9=
EXTT10=
EXTT11=
PLAYORDER=
